<svg width="20" height="17" viewBox="0 0 20 17" fill="none" xmlns="http://www.w3.org/2000/svg">
<path d="M2 0.081543L4 4.08154H7L5 0.081543H7L9 4.08154H12L10 0.081543H12L14 4.08154H17L15 0.081543H18C18.55 0.081543 19.0208 0.277376 19.4125 0.669043C19.8042 1.06071 20 1.53154 20 2.08154V14.0815C20 14.6315 19.8042 15.1024 19.4125 15.494C19.0208 15.8857 18.55 16.0815 18 16.0815H2C1.45 16.0815 0.979167 15.8857 0.5875 15.494C0.195833 15.1024 0 14.6315 0 14.0815V2.08154C0 1.53154 0.195833 1.06071 0.5875 0.669043C0.979167 0.277376 1.45 0.081543 2 0.081543ZM2 6.08154V14.0815H18V6.08154H2Z" fill="#712D9C"/>
</svg>
