<svg width="20" height="20" viewBox="0 0 20 20" fill="none" xmlns="http://www.w3.org/2000/svg">
<path d="M10.7 15.25V8.74998C10.7 8.33576 10.3642 7.99998 9.95 7.99998C9.53579 7.99998 9.2 8.33576 9.2 8.74998V15.25C9.2 15.6642 9.53579 16 9.95 16C10.3642 16 10.7 15.6642 10.7 15.25Z" fill="#97A1AF"/>
<path d="M7.7 15.25V8.74998C7.7 8.33576 7.36421 7.99998 6.95 7.99998C6.53579 7.99998 6.2 8.33576 6.2 8.74998V15.25C6.2 15.6642 6.53579 16 6.95 16C7.36421 16 7.7 15.6642 7.7 15.25Z" fill="#97A1AF"/>
<path d="M13.7 15.25V8.74998C13.7 8.33576 13.3642 7.99998 12.95 7.99998C12.5358 7.99998 12.2 8.33576 12.2 8.74998V15.25C12.2 15.6642 12.5358 16 12.95 16C13.3642 16 13.7 15.6642 13.7 15.25Z" fill="#97A1AF"/>
<path d="M14 3.99998C14 1.79998 12.2 0.0999756 10 0.0999756C7.8 0.0999756 6 1.79998 6 3.99998H0.75C0.335786 3.99998 0 4.33576 0 4.74998C0 5.16419 0.335787 5.49998 0.75 5.49998H1.8L2.93146 17.6849C3.02696 18.7134 3.88996 19.5 4.92289 19.5H15.2771C16.31 19.5 17.173 18.7134 17.2685 17.6849L18.4 5.49998H19.25C19.6642 5.49998 20 5.16419 20 4.74998C20 4.33576 19.6642 3.99998 19.25 3.99998H14ZM10 1.59998C11.4 1.59998 12.5 2.69998 12.5 3.99998H7.5C7.5 2.69998 8.6 1.59998 10 1.59998ZM15.7 18H4.3L3.3 5.49998H6.3C6.3 5.49998 8.8 5.49998 13.7 5.49998C13.7 5.49998 14.7 5.49998 16.7 5.49998L15.7 18Z" fill="#97A1AF"/>
</svg>
