<svg width="16" height="17" viewBox="0 0 16 17" fill="none" xmlns="http://www.w3.org/2000/svg">
<path fill-rule="evenodd" clip-rule="evenodd" d="M12 4.08154C12 6.29068 10.2091 8.08154 8 8.08154C5.79086 8.08154 4 6.29068 4 4.08154C4 1.8724 5.79086 0.081543 8 0.081543C10.2091 0.081543 12 1.8724 12 4.08154ZM10.5 4.08154C10.5 5.46226 9.38071 6.58154 8 6.58154C6.61929 6.58154 5.5 5.46226 5.5 4.08154C5.5 2.70083 6.61929 1.58154 8 1.58154C9.38071 1.58154 10.5 2.70083 10.5 4.08154Z" fill="#97A1AF"/>
<path fill-rule="evenodd" clip-rule="evenodd" d="M0 13.8535V16.0815H16V13.8535C16 12.1862 14.9657 10.6937 13.4045 10.1082L13.2669 10.0566C9.87107 8.7832 6.12893 8.7832 2.73315 10.0566L2.59551 10.1082C1.03429 10.6937 0 12.1862 0 13.8535ZM3.25984 11.4611C6.31603 10.315 9.68397 10.315 12.7402 11.4611L12.8778 11.5127C13.8536 11.8786 14.5 12.8114 14.5 13.8535V14.5815H1.5V13.8535C1.5 12.8114 2.14643 11.8786 3.12219 11.5127L3.25984 11.4611Z" fill="#97A1AF"/>
</svg>
