<svg width="20" height="17" viewBox="0 0 20 17" fill="none" xmlns="http://www.w3.org/2000/svg">
<path d="M10 13.0815C10.2833 13.0815 10.5208 12.9857 10.7125 12.794C10.9042 12.6024 11 12.3649 11 12.0815C11 11.7982 10.9042 11.5607 10.7125 11.369C10.5208 11.1774 10.2833 11.0815 10 11.0815C9.71667 11.0815 9.47917 11.1774 9.2875 11.369C9.09583 11.5607 9 11.7982 9 12.0815C9 12.3649 9.09583 12.6024 9.2875 12.794C9.47917 12.9857 9.71667 13.0815 10 13.0815ZM10 9.08154C10.2833 9.08154 10.5208 8.98571 10.7125 8.79404C10.9042 8.60238 11 8.36488 11 8.08154C11 7.79821 10.9042 7.56071 10.7125 7.36904C10.5208 7.17738 10.2833 7.08154 10 7.08154C9.71667 7.08154 9.47917 7.17738 9.2875 7.36904C9.09583 7.56071 9 7.79821 9 8.08154C9 8.36488 9.09583 8.60238 9.2875 8.79404C9.47917 8.98571 9.71667 9.08154 10 9.08154ZM10 5.08154C10.2833 5.08154 10.5208 4.98571 10.7125 4.79404C10.9042 4.60238 11 4.36488 11 4.08154C11 3.79821 10.9042 3.56071 10.7125 3.36904C10.5208 3.17738 10.2833 3.08154 10 3.08154C9.71667 3.08154 9.47917 3.17738 9.2875 3.36904C9.09583 3.56071 9 3.79821 9 4.08154C9 4.36488 9.09583 4.60238 9.2875 4.79404C9.47917 4.98571 9.71667 5.08154 10 5.08154ZM18 16.0815H2C1.45 16.0815 0.979167 15.8857 0.5875 15.494C0.195833 15.1024 0 14.6315 0 14.0815V10.0815C0.55 10.0815 1.02083 9.88571 1.4125 9.49404C1.80417 9.10238 2 8.63154 2 8.08154C2 7.53154 1.80417 7.06071 1.4125 6.66904C1.02083 6.27738 0.55 6.08154 0 6.08154V2.08154C0 1.53154 0.195833 1.06071 0.5875 0.669043C0.979167 0.277376 1.45 0.081543 2 0.081543H18C18.55 0.081543 19.0208 0.277376 19.4125 0.669043C19.8042 1.06071 20 1.53154 20 2.08154V6.08154C19.45 6.08154 18.9792 6.27738 18.5875 6.66904C18.1958 7.06071 18 7.53154 18 8.08154C18 8.63154 18.1958 9.10238 18.5875 9.49404C18.9792 9.88571 19.45 10.0815 20 10.0815V14.0815C20 14.6315 19.8042 15.1024 19.4125 15.494C19.0208 15.8857 18.55 16.0815 18 16.0815ZM18 14.0815V11.5315C17.3833 11.1649 16.8958 10.6774 16.5375 10.069C16.1792 9.46071 16 8.79821 16 8.08154C16 7.36488 16.1792 6.70238 16.5375 6.09404C16.8958 5.48571 17.3833 4.99821 18 4.63154V2.08154H2V4.63154C2.61667 4.99821 3.10417 5.48571 3.4625 6.09404C3.82083 6.70238 4 7.36488 4 8.08154C4 8.79821 3.82083 9.46071 3.4625 10.069C3.10417 10.6774 2.61667 11.1649 2 11.5315V14.0815H18Z" fill="#97A1AF"/>
</svg>
