<svg width="19" height="19" viewBox="0 0 19 19" fill="none" xmlns="http://www.w3.org/2000/svg">
<path d="M18.585 1.07103C18.2923 0.778307 17.8177 0.778292 17.525 1.071L9.806 8.78902L2.0965 1.07764C1.80356 0.784637 1.32852 0.78472 1.03569 1.07783C0.743098 1.37069 0.743181 1.84525 1.03587 2.13802L8.746 9.85002L1.02997 17.566C0.737195 17.8588 0.73697 18.3334 1.02947 18.6265C1.32238 18.9199 1.79781 18.9201 2.09097 18.6269L9.806 10.91L17.532 18.635C17.8247 18.9277 18.2993 18.9277 18.592 18.635C18.8847 18.3423 18.8847 17.8677 18.592 17.575L10.868 9.85002L18.5851 2.13106C18.8778 1.83832 18.8777 1.36374 18.585 1.07103Z" fill="#CED2DA"/>
</svg>
